<?xml version="1.0" encoding="UTF-8" standalone="no"?>
<!-- Created with Inkscape (http://www.inkscape.org/) -->

<svg
   xmlns:dc="http://purl.org/dc/elements/1.1/"
   xmlns:cc="http://creativecommons.org/ns#"
   xmlns:rdf="http://www.w3.org/1999/02/22-rdf-syntax-ns#"
   xmlns:svg="http://www.w3.org/2000/svg"
   xmlns="http://www.w3.org/2000/svg"
   xmlns:sodipodi="http://sodipodi.sourceforge.net/DTD/sodipodi-0.dtd"
   xmlns:inkscape="http://www.inkscape.org/namespaces/inkscape"
   width="166.35664mm"
   height="166.39017mm"
   viewBox="0 0 166.35664 166.39017"
   version="1.1"
   id="svg8"
   inkscape:export-filename="/home/dmpop/favicon.png"
   inkscape:export-xdpi="78.878365"
   inkscape:export-ydpi="78.878365"
   inkscape:version="0.92.2 5c3e80d, 2017-08-06"
   sodipodi:docname="favicon.svg">
  <defs
     id="defs2">
    <inkscape:perspective
       sodipodi:type="inkscape:persp3d"
       inkscape:vp_x="0 : 65.011906 : 1"
       inkscape:vp_y="0 : 1000.0001 : 0"
       inkscape:vp_z="103.56549 : -49.136907 : 1"
       inkscape:persp3d-origin="65.011902 : 43.34127 : 1"
       id="perspective9439" />
    <symbol
       id="Coffeeshop_Inv">
      <title
         id="title1729">Coffeeshop</title>
      <rect
         x="0.13229166"
         y="0.13229166"
         width="18.785418"
         height="18.785418"
         ry="1.5875"
         style="stroke:#ffffff;stroke-width:0.26458332"
         id="rect1731" />
      <g
         style="fill:#ffffff;fill-rule:evenodd;stroke:none"
         id="g1737">
        <path
           style="stroke-width:0.26458332"
           inkscape:connector-curvature="0"
           d="m 5.2916667,11.90625 a 1.3229167,1.3229167 0 0 0 1.3229166,1.322917 h 5.8208337 a 1.3229167,1.3229167 0 0 0 1.322916,-1.322917 v -0.264583 h 0.264584 a 2.6458335,2.6458335 0 0 0 0,-5.291667 H 5.2916667 Z M 13.758333,7.4083333 v 3.1749997 h 0.264584 a 1.5875,1.5875 0 0 0 0,-3.1749997 z"
           id="path1733" />
        <path
           style="stroke-width:0.26458332"
           inkscape:connector-curvature="0"
           d="m 2.1166667,13.758333 a 1.5875,1.5875 0 0 0 1.5875,1.5875 H 15.345833 a 1.5875,1.5875 0 0 0 1.5875,-1.5875 z"
           id="path1735" />
      </g>
    </symbol>
    <symbol
       id="Coffeeshop">
      <title
         id="title1720">Coffeeshop</title>
      <g
         style="fill-rule:evenodd;stroke:none"
         id="g1726">
        <path
           style="stroke-width:0.26458332"
           inkscape:connector-curvature="0"
           d="m 5.2916667,11.90625 a 1.3229167,1.3229167 0 0 0 1.3229166,1.322917 h 5.8208337 a 1.3229167,1.3229167 0 0 0 1.322916,-1.322917 v -0.264583 h 0.264584 a 2.6458335,2.6458335 0 0 0 0,-5.291667 H 5.2916667 Z M 13.758333,7.4083333 v 3.1749997 h 0.264584 a 1.5875,1.5875 0 0 0 0,-3.1749997 z"
           id="path1722" />
        <path
           style="stroke-width:0.26458332"
           inkscape:connector-curvature="0"
           d="m 2.1166667,13.758333 a 1.5875,1.5875 0 0 0 1.5875,1.5875 H 15.345833 a 1.5875,1.5875 0 0 0 1.5875,-1.5875 z"
           id="path1724" />
      </g>
    </symbol>
  </defs>
  <sodipodi:namedview
     id="base"
     pagecolor="#ffffff"
     bordercolor="#666666"
     borderopacity="1.0"
     inkscape:pageopacity="0.0"
     inkscape:pageshadow="2"
     inkscape:zoom="0.35"
     inkscape:cx="-540.92022"
     inkscape:cy="71.079301"
     inkscape:document-units="mm"
     inkscape:current-layer="layer1"
     showgrid="false"
     fit-margin-top="0"
     fit-margin-left="0"
     fit-margin-right="0"
     fit-margin-bottom="0"
     inkscape:window-width="1920"
     inkscape:window-height="1015"
     inkscape:window-x="1920"
     inkscape:window-y="0"
     inkscape:window-maximized="1" />
  <metadata
     id="metadata5">
    <rdf:RDF>
      <cc:Work
         rdf:about="">
        <dc:format>image/svg+xml</dc:format>
        <dc:type
           rdf:resource="http://purl.org/dc/dcmitype/StillImage" />
        <dc:title></dc:title>
      </cc:Work>
    </rdf:RDF>
  </metadata>
  <g
     inkscape:label="Layer 1"
     inkscape:groupmode="layer"
     id="layer1"
     transform="translate(826.19189,-34.093404)">
    <path
       sodipodi:type="star"
       style="fill:#d38d5f;fill-opacity:1;stroke:none;stroke-width:1.17299998;stroke-linecap:round;stroke-linejoin:round;stroke-miterlimit:4;stroke-dasharray:none;stroke-opacity:1"
       id="path4551"
       sodipodi:sides="51"
       sodipodi:cx="-740.20093"
       sodipodi:cy="115.08673"
       sodipodi:r1="79.292168"
       sodipodi:r2="39.777542"
       sodipodi:arg1="0.71793314"
       sodipodi:arg2="0.779533"
       inkscape:flatsided="false"
       inkscape:rounded="0.28950718"
       inkscape:randomized="0"
       d="m -680.48069,167.24745 c -7.55419,8.649 -23.35648,-32.36676 -31.42878,-24.1992 -8.07231,8.16755 33.12599,23.48764 24.56619,31.14277 -8.55979,7.65512 -19.20195,-34.99168 -28.21677,-27.87802 -9.01482,7.11366 29.98856,27.38042 20.55292,33.92562 -9.43565,6.54521 -14.75635,-37.08615 -24.57703,-31.13422 -9.82068,5.95192 26.39653,30.85813 16.22808,36.19419 -10.16846,5.33607 -10.08706,-38.61843 -20.56472,-33.91847 -10.47766,4.69997 22.40436,33.86806 11.65723,37.9141 -10.74712,4.04604 -5.26484,-39.56531 -16.24066,-36.18855 -10.97581,3.37676 18.07256,36.3646 6.90968,39.05927 -11.16287,2.69468 -0.36282,-39.91241 -11.67041,-37.91004 -11.30759,2.00236 13.46679,38.30987 2.05738,39.61233 -11.40942,1.30247 4.54469,-39.65448 -6.92326,-39.05686 -11.46796,0.59762 8.65688,39.67442 -2.82611,39.56492 -11.48299,-0.10949 9.38332,-38.79543 -2.07115,-39.61161 -11.45448,-0.81619 3.71574,40.43753 -7.66676,38.91774 -11.3825,-1.51979 14.07971,-37.34828 2.81235,-39.5659 -11.26735,-2.21762 -1.28171,40.58766 -12.39118,37.68061 -11.10946,-2.90704 18.56266,-35.33497 7.65322,-38.92041 -10.90943,-3.58544 -6.25974,40.12252 -16.92776,35.87229 -10.66802,-4.25024 22.76421,-32.78602 12.37807,-37.68492 -10.38613,-4.89891 -11.14289,39.04915 -21.20774,33.52016 -10.06486,-5.52899 26.62069,-29.74006 16.91529,-35.87817 -9.7054,-6.1381 -15.85712,37.38386 -25.16624,30.65992 -9.30912,-6.72394 30.07362,-26.24327 21.19609,-33.52754 -8.87753,-7.28426 -20.33097,35.15185 -28.74324,27.3349 -8.41226,-7.81696 33.07067,-22.34867 25.15558,-30.66867 -7.9151,-8.32 -24.49662,32.38698 -31.88452,23.5955 -7.38789,-8.79147 35.56641,-18.11528 28.73373,-27.34488 -6.83267,-9.22961 -28.29092,29.13115 -34.54245,19.49842 -6.25153,-9.63272 37.52298,-13.60728 31.8763,-23.60659 -5.64667,-9.9993 -31.65637,25.43374 -36.67677,15.10578 -5.02039,-10.32796 38.91075,-8.89301 34.53568,-19.51044 -4.37508,-10.61743 -34.54195,21.35076 -38.25511,10.48414 -3.71316,-10.86663 39.70868,-4.04393 36.67152,-15.11853 -3.03716,-11.0746 -36.90389,16.94413 -39.25353,5.70357 -2.34963,-11.24057 39.90466,0.86645 38.25146,-10.49744 -1.6532,-11.36389 -38.70641,12.28065 -39.65691,0.83654 -0.95049,-11.44411 39.49572,5.7637 39.25154,-5.71722 -0.24418,-11.48091 -39.92218,7.431 -39.45912,-4.04317 0.46305,-11.47417 38.48807,10.57358 39.65661,-0.85033 1.16854,-11.423902 -40.53278,2.46871 -38.66319,-8.86159 1.86959,-11.330299 36.89698,15.22317 39.46053,4.02945 2.56355,-11.193716 -40.52894,-2.53101 -37.28116,-13.545677 3.24779,-11.014672 34.74658,19.641987 38.66627,8.848147 3.9197,-10.793845 -39.91071,-7.492355 -35.33398,-18.024427 4.57674,-10.532072 32.06945,23.763057 37.28587,13.532714 5.21642,-10.230348 -38.68749,-12.340127 -32.85118,-22.229943 5.83632,-9.889816 28.90617,27.523906 35.34025,18.012138 6.43407,-9.511769 -36.87781,-17.000834 -29.87038,-26.098475 7.00742,-9.097642 25.30471,30.867521 32.8589,22.218518 7.55419,-8.649003 -34.50908,-21.403827 -26.43678,-29.571383 8.07231,-8.167555 21.31966,33.743214 29.87945,26.088088 8.5598,-7.655126 -31.61724,-25.48236 -22.60242,-32.596018 9.01482,-7.113658 17.01142,36.107394 26.44706,29.562188 9.43564,-6.545205 -28.24612,-29.174605 -18.42544,-35.126529 9.82067,-5.951925 12.4453,37.924221 22.61376,32.588155 10.16845,-5.336066 -24.44681,-32.424593 -13.96915,-37.124559 10.47766,-4.699966 7.69053,39.166158 18.43765,35.12012 10.74713,-4.046037 -20.27691,-35.183058 -9.30109,-38.559819 10.97582,-3.37676 2.81918,39.814375 13.98206,37.1197 11.16287,-2.694675 -15.79964,-37.408184 -4.49205,-39.410551 11.30759,-2.002367 -2.09491,39.859046 9.3145,38.556583 11.40941,-1.302464 -11.08286,-39.06624 0.3851,-39.66386 11.46795,-0.597619 -6.97724,39.299496 4.50575,39.408987 11.48299,0.109491 -6.19807,-40.132091 5.2564,-39.315904 11.45447,0.816187 -11.75381,38.144204 -0.37131,39.663991 11.38251,1.519787 -1.21932,-40.58958 10.04803,-38.371959 11.26735,2.217621 -16.35219,36.410686 -5.24273,39.317729 11.10946,2.907043 3.7779,-40.431773 14.68733,-36.846335 10.90943,3.585439 -20.7027,34.125218 -10.03468,38.375451 10.66802,4.250232 8.71785,-39.661062 19.10399,-34.762158 10.38613,4.898904 -24.73937,31.322448 -14.67452,36.85144 10.06486,5.528992 13.52566,-38.289129 23.23106,-32.151021 9.70539,6.138107 -28.40103,28.04486 -19.0919,34.768798 9.30912,6.723938 18.12842,-36.336772 27.00595,-29.052509 8.87754,7.284264 -31.63214,24.342142 -23.21987,32.159098 8.41227,7.816956 22.45639,-33.833586 30.37148,-25.513589 7.9151,8.319996 -34.38375,20.27042 -26.99585,29.061897 7.38789,8.791477 26.44393,-30.817518 33.2766,-21.58791 6.83267,9.229608 -36.61414,15.891421 -30.36261,25.524149 6.25153,9.632725 30.03061,-27.334288 35.67728,-17.33498 5.64668,9.999307 -38.28948,11.271523 -33.26909,21.59948 5.0204,10.327955 33.16206,-23.436698 37.53713,-12.81927 4.37508,10.617428 -39.38441,6.480761 -35.67125,17.347385 3.71316,10.86662 35.7908,-19.183831 38.82796,-8.109232 3.03716,11.074602 -39.88231,1.591758 -37.53267,12.832322 2.34963,11.24056 37.87699,-14.640157 39.53019,-3.27627 1.6532,11.36389 -39.77563,-3.32137 -38.82514,8.12274 0.9505,11.44411 39.38901,-9.87456 39.63319,1.60636 0.24418,11.48092 -39.06599,-8.18416 -39.52905,3.29001 -0.46306,11.47418 40.30393,-4.95926 39.13539,6.46464 -1.16854,11.42391 -37.76416,-12.92288 -39.63375,-1.59258 -1.86959,11.3303 40.60788,0.0312 38.04433,11.22493 -2.56354,11.19371 -35.88985,-17.46571 -39.13763,-6.45104 -3.24778,11.01468 40.29626,5.02121 36.37656,15.81505 -3.91969,10.79385 -33.47149,-21.74376 -38.04823,-11.21169 -4.57674,10.53207 39.37379,9.93508 34.15737,20.16543 -5.21643,10.23035 -30.54575,-25.69222 -36.38206,-15.8024 -5.83632,9.88982 37.85444,14.69836 31.42037,24.21013 -6.43408,9.51177 -27.15695,-29.2512 -34.16438,-20.15355 -7.00742,9.09764 35.76128,19.23882 28.20708,27.88782 z"
       inkscape:transform-center-x="2.0829719"
       inkscape:transform-center-y="2.8164767"
       transform="matrix(1.0371237,-0.16215478,0.16215478,1.0371237,6.058262,-122.1181)" />
    <circle
       style="fill:#ffdd55;fill-opacity:1;stroke:none;stroke-width:9.61091995;stroke-miterlimit:4;stroke-dasharray:none;stroke-opacity:1"
       id="path9455-5"
       cx="-743.01355"
       cy="117.28848"
       r="47.225079" />
  </g>
</svg>
